<?xml version="1.0" encoding="UTF-8"?>
<svg id="Layer_6" data-name="Layer 6" xmlns="http://www.w3.org/2000/svg" viewBox="0 0 1014.61 1289.27">
  <defs>
    <style>
      .cls-1 {
        fill: #00aeb2;
      }

      .cls-1, .cls-2, .cls-3 {
        stroke: #12162e;
        stroke-miterlimit: 10;
        stroke-width: 20px;
      }

      .cls-2 {
        fill: #ea2644;
      }

      .cls-3 {
        fill: #ffc115;
      }
    </style>
  </defs>
  <g>
    <path class="cls-2" d="m536.67,5.77s-702.42,858.44-16.55,997.82c0,0,710.2-22.12,16.55-997.82Z"/>
    <path class="cls-1" d="m584.08,761.97s-71.93,119.88-150.26-11.19c0,0-12.79-100.7,105.5-91.11,0,0,94.31,4.8,100.7,135.87,0,0-6.39,127.88-139.07,132.67,0,0-195.01,15.98-225.38-212.6,0,0-17.05-203.54,235.98-249.36,0,0,214.79-35.17,310.69,211,0,0,70.33,159.85-86.32,346.87,0,0-150.26,175.3-380.43,104.97,0,0-222.72-34.1-305.31-301.58,0,0-23.98-84.72-14.39-161.44,0,0-139.07,318.63,159.85,521.63,0,0,359.65,276.53,700.13-99.1,0,0,119.64-125.21,115.09-342.6,0,0,14.39-179.03-179.03-334.08,0,0-183.4-164.64-461.95-71.93,0,0-263.75,99.1-260.55,374.04,0,0-19.18,319.69,289.32,353.26,0,0,335.14,39.43,375.64-266.41,0,0,5.33-305.84-296.25-264.28,0,0-242.97,80.99-111.36,282.93,0,0,129.48,135.07,217.39-57.54Z"/>
  </g>
  <circle class="cls-3" cx="532.28" cy="734.77" r="116.15"/>
</svg>