<?xml version="1.0" encoding="UTF-8"?>
<svg id="Layer_1" data-name="Layer 1" xmlns="http://www.w3.org/2000/svg" xmlns:xlink="http://www.w3.org/1999/xlink" viewBox="0 0 1200 1200">
  <defs>
    <style>
      .cls-1 {
        fill: url(#linear-gradient-2);
      }

      .cls-2 {
        fill: url(#linear-gradient);
      }
    </style>
    <linearGradient id="linear-gradient" x1="717.16" y1="-64.47" x2="482.84" y2="1264.47" gradientUnits="userSpaceOnUse">
      <stop offset="0" stop-color="#f15a29"/>
      <stop offset="1" stop-color="#ed1c24"/>
    </linearGradient>
    <linearGradient id="linear-gradient-2" x1="0" y1="723.3" x2="963.8" y2="723.3" gradientUnits="userSpaceOnUse">
      <stop offset="0" stop-color="#fff"/>
      <stop offset="1" stop-color="#fff"/>
    </linearGradient>
  </defs>
  <rect class="cls-2" width="1200" height="1200" rx="128.47" ry="128.47"/>
  <path class="cls-1" d="m928,337.55l-146.36,146.34,95.68,436.61-32.82,55.65-164.99-391.62s-273.31,218.69-276.29,418.45c0,0-26.92,182.86,164.47,197.02H128.47c-70.66,0-128.47-57.81-128.47-128.47v-443.74c3.33,55.18,27.5,193.49,186.51,198.28,0,0,163.01,14.89,437.34-294.22l-390.63-168.96,52.7-29.84,437.31,95.45,141.14-141.17s30.83-30.8,99.42-40.73c0,0-4.99,43.74-35.8,90.95Z"/>
</svg>