<?xml version="1.0" encoding="utf-8"?><svg version="1.1" id="Layer_1" xmlns="http://www.w3.org/2000/svg" xmlns:xlink="http://www.w3.org/1999/xlink" x="0px" y="0px" width="115.031px" height="122.88px" viewBox="0 0 115.031 122.88" enable-background="new 0 0 115.031 122.88" xml:space="preserve"><g><path d="M68.987,7.718H27.143c-2.73,0-5.25,0.473-7.508,1.417c-2.257,0.945-4.357,2.363-6.248,4.253 c-1.89,1.89-3.308,3.99-4.253,6.248c-0.945,2.257-1.417,4.778-1.417,7.508V67.99c0,2.73,0.472,5.25,1.417,7.508 c0.945,2.258,2.363,4.357,4.253,6.248c1.942,1.891,4.043,3.359,6.3,4.252c2.258,0.945,4.726,1.418,7.456,1.418h17.956 c2.101,0,3.833,1.732,3.833,3.832c0,0.473-0.105,0.893-0.21,1.313c-0.683,2.521-1.418,5.041-2.258,7.455 c-0.893,2.574-1.837,4.988-2.888,7.352c-0.525,1.207-1.155,2.361-1.837,3.57c3.675-1.629,7.14-3.518,10.343-5.619 c3.36-2.205,6.51-4.672,9.397-7.35c2.94-2.73,5.565-5.723,7.98-8.926c0.735-0.996,1.89-1.521,3.045-1.521H87.94 c2.73,0,5.198-0.473,7.455-1.418c2.258-0.945,4.358-2.363,6.301-4.252c1.89-1.891,3.308-3.99,4.253-6.248 c0.944-2.258,1.417-4.779,1.417-7.508V27.249c0-2.73-0.473-5.25-1.417-7.508c-0.945-2.258-2.363-4.357-4.253-6.248 s-3.99-3.308-6.248-4.252c-2.258-0.945-4.777-1.418-7.508-1.418H68.987V7.718L68.987,7.718z M61.705,55.688h-9.976V54.61 c0-1.833,0.188-3.327,0.574-4.471c0.386-1.155,0.958-2.193,1.721-3.143c0.762-0.951,2.474-2.619,5.136-5.005 c1.416-1.251,2.124-2.396,2.124-3.435c0-1.047-0.287-1.852-0.851-2.434c-0.574-0.573-1.435-0.864-2.59-0.864 c-1.247,0-2.269,0.446-3.083,1.338c-0.816,0.883-1.335,2.444-1.561,4.657l-10.191-1.368c0.349-4.054,1.711-7.314,4.078-9.787 c2.376-2.473,6.015-3.706,10.917-3.706c3.818,0,6.893,0.863,9.24,2.58c3.184,2.338,4.778,5.441,4.778,9.321 c0,1.61-0.412,3.172-1.237,4.666c-0.815,1.493-2.501,3.327-5.037,5.48c-1.766,1.523-2.887,2.735-3.353,3.657 C61.938,53.01,61.705,54.212,61.705,55.688L61.705,55.688L61.705,55.688z M51.38,58.558h10.693v8.532H51.38V58.558L51.38,58.558z M46.097,0.053H87.94c3.675,0,7.141,0.683,10.396,1.995c3.202,1.312,6.143,3.308,8.768,5.933c2.626,2.625,4.621,5.565,5.934,8.768 c1.312,3.203,1.994,6.667,1.994,10.396V67.99c0,3.729-0.683,7.193-1.994,10.396c-1.313,3.201-3.308,6.141-5.934,8.768 c-2.625,2.625-5.565,4.566-8.768,5.932c-3.202,1.313-6.668,1.996-10.396,1.996H74.395c-2.362,2.992-4.935,5.826-7.665,8.4 c-3.255,3.045-6.72,5.773-10.448,8.189c-3.728,2.467-7.718,4.621-11.971,6.457c-4.2,1.838-8.715,3.361-13.44,4.621 c-1.365,0.367-2.835-0.053-3.833-1.156c-1.417-1.574-1.26-3.988,0.315-5.406c2.205-1.943,4.095-3.938,5.618-5.934 c1.47-1.941,2.678-3.938,3.57-5.984v-0.053c0.998-2.205,1.89-4.463,2.678-6.721c0.263-0.787,0.525-1.627,0.788-2.467H27.091 c-3.675,0-7.14-0.684-10.396-1.996c-3.203-1.313-6.143-3.307-8.768-5.932c-2.625-2.625-4.62-5.566-5.933-8.768 C0.682,75.078,0,71.613,0,67.938V27.091c0-3.676,0.682-7.141,1.995-10.396c1.313-3.203,3.308-6.143,5.933-8.768 c2.625-2.625,5.565-4.62,8.768-5.933S23.363,0,27.091,0h18.953L46.097,0.053L46.097,0.053z"/></g></svg>