<?xml version="1.0" encoding="UTF-8"?>
<svg id="Layer_2" data-name="Layer 2" xmlns="http://www.w3.org/2000/svg" xmlns:xlink="http://www.w3.org/1999/xlink" viewBox="0 0 1200 272.76">
  <defs>
    <style>
      .cls-1 {
        fill: url(#linear-gradient-2);
      }

      .cls-2 {
        letter-spacing: 0em;
      }

      .cls-2, .cls-3, .cls-4 {
        fill: #f36f2f;
        font-family: VanishaRegular, Vanisha;
      }

      .cls-5 {
        fill: #2f2f2f;
        font-family: AgencyFB-Reg, 'Agency FB';
      }

      .cls-6 {
        font-size: 185.38px;
      }

      .cls-7 {
        fill: url(#linear-gradient);
      }

      .cls-4 {
        letter-spacing: 0em;
      }
    </style>
    <linearGradient id="linear-gradient" x1="160.51" y1="-14.43" x2="108.06" y2="283" gradientUnits="userSpaceOnUse">
      <stop offset="0" stop-color="#f15a29"/>
      <stop offset="1" stop-color="#ed1c24"/>
    </linearGradient>
    <linearGradient id="linear-gradient-2" x1="0" y1="161.88" x2="215.71" y2="161.88" gradientUnits="userSpaceOnUse">
      <stop offset="0" stop-color="#fff"/>
      <stop offset="1" stop-color="#fff"/>
    </linearGradient>
  </defs>
  <g>
    <rect class="cls-7" width="268.57" height="268.57" rx="28.75" ry="28.75"/>
    <path class="cls-1" d="m207.69,75.55l-32.76,32.75,21.41,97.72-7.34,12.45-36.93-87.65s-61.17,48.94-61.84,93.65c0,0-6.02,40.93,36.81,44.1H28.75c-15.81,0-28.75-12.94-28.75-28.75v-99.31c.74,12.35,6.16,43.3,41.74,44.38,0,0,36.48,3.33,97.88-65.85l-87.43-37.82,11.79-6.68,97.87,21.36,31.59-31.59s6.9-6.89,22.25-9.12c0,0-1.12,9.79-8.01,20.36Z"/>
  </g>
  <text class="cls-6" transform="translate(300.32 204.72)"><tspan class="cls-5" x="0" y="0">Travel</tspan><tspan class="cls-3" x="360.98" y="0">S</tspan><tspan class="cls-4" x="489.63" y="0">p</tspan><tspan class="cls-2" x="573.42" y="0">h</tspan><tspan class="cls-3" x="654.99" y="0">ere</tspan></text>
</svg>