<?xml version="1.0" encoding="UTF-8"?>
<svg id="Layer_2" data-name="Layer 2" xmlns="http://www.w3.org/2000/svg" xmlns:xlink="http://www.w3.org/1999/xlink" viewBox="0 0 1466.19 265.53">
  <defs>
    <style>
      .cls-1 {
        fill: url(#linear-gradient-2);
      }

      .cls-2 {
        fill: #fff;
      }

      .cls-3 {
        fill: #2f2f2f;
      }

      .cls-4 {
        fill: #f36f2f;
      }

      .cls-5 {
        fill: url(#linear-gradient);
      }
    </style>
    <linearGradient id="linear-gradient" x1="162.67" y1="-14.74" x2="110.81" y2="279.4" gradientUnits="userSpaceOnUse">
      <stop offset="0" stop-color="#f15a29"/>
      <stop offset="1" stop-color="#ed1c24"/>
    </linearGradient>
    <linearGradient id="linear-gradient-2" x1=".5" y1="160.12" x2="218.39" y2="160.12" gradientUnits="userSpaceOnUse">
      <stop offset="0" stop-color="#fff"/>
      <stop offset="1" stop-color="#fff"/>
    </linearGradient>
  </defs>
  <g>
    <path class="cls-5" d="m272.76,28.33v207.99c0,15.58-13.11,28.33-29.12,28.33H29.84c-16.02,0-29.12-12.75-29.12-28.33V28.33C.71,12.75,13.82,0,29.84,0h213.8c16.02,0,29.12,12.75,29.12,28.33Z"/>
    <g>
      <path class="cls-1" d="m29.22,265.03c-15.84,0-28.72-12.54-28.72-27.95v-88.93c2.88,13.66,12.13,34.42,41.68,35.29,0,0,.3.03.87.03,6.58,0,42.3-3.15,98.99-65.35l.48-.52-88.55-37.3,10.92-6.02,99.55,21.15,32.29-31.45c.07-.07,6.9-6.54,21.67-8.79-.4,2.33-2.13,10.55-7.93,19.23l-33.45,32.57,21.78,96.77-6.86,11.32-37.4-86.44-.51.4c-.62.49-62.36,49.09-63.03,93.06-.02.1-2.46,17.12,7.41,29.94,5.04,6.55,12.37,10.9,21.82,12.98H29.22Z"/>
      <path class="cls-2" d="m217.77,55.8c-.57,2.94-2.45,10.43-7.7,18.3l-33.22,32.34-.4.39.12.55,21.67,96.3-6.25,10.32-36.76-84.95-.51-1.19-1.02.79c-.16.12-15.79,12.37-31.3,29.87-14.36,16.2-31.54,40.37-31.93,63.51-.19,1.36-2.27,17.62,7.51,30.32,4.42,5.74,10.56,9.81,18.31,12.17H29.22c-15.56,0-28.22-12.31-28.22-27.45v-84.81c3.83,13.52,14.04,30.86,41.14,31.67.1,0,.4.03.91.03,6.62,0,42.53-3.16,99.36-65.51l.95-1.05-1.3-.55-86.95-36.62,9.85-5.43,99.1,21.06.52.11.38-.37,32.1-31.26c.07-.06,6.6-6.23,20.7-8.54m1.21-1.2c-15.6,2.2-22.61,9.02-22.61,9.02l-32.1,31.26-99.47-21.14-11.99,6.61,88.85,37.42c-56.92,62.45-92.76,65.19-98.62,65.19-.56,0-.85-.03-.85-.03-33.71-.99-40.78-27.67-42.19-41.18v95.32c0,15.65,13.15,28.45,29.22,28.45h97.22c-40.84-4.46-34.95-43.41-34.95-43.41.68-44.24,62.84-92.67,62.84-92.67l37.53,86.73,7.47-12.32-21.76-96.69,33.29-32.41c7.01-10.46,8.14-20.14,8.14-20.14h0Z"/>
    </g>
  </g>
  <g>
    <path class="cls-3" d="m331.5,47.86l1.85-5.19h119.01l1.67,5.19,8.9,26.51-27.62-15.94c-8.9-5.19-15.29-8.59-19.19-10.2-3.89-1.6-7.45-2.41-10.66-2.41v138.48l10.57,6.3h-46.53l10.57-6.3V45.82c-3.21,0-6.77.81-10.66,2.41-3.89,1.61-10.29,5-19.19,10.2l-27.44,15.94,8.71-26.51Z"/>
    <path class="cls-3" d="m504.64,92.72v2.97c0,2.35.06,4.2.19,5.56v24.28c-.99-1.98-2.07-4.23-3.24-6.77-1.18-2.53-2.04-4.39-2.6-5.56-.56-1.17-1.3-2.41-2.22-3.71-.93-1.3-1.89-2.1-2.87-2.41-.99-.31-2.29-.43-3.89-.37-1.61.06-3.59.46-5.93,1.21-4.33,1.24-7.85,2.9-10.57,5-2.84,4.2-5.01,8-6.49,11.4-1.48,3.4-2.22,5.47-2.22,6.21v44.68c-.12,1.73.19,3.92.93,6.58.74,2.66,2.22,4.98,4.45,6.95.74.74,1.73,1.18,2.97,1.3.86,0,2.04-.06,3.52-.19h1.11v1.11h-48.01v-1.11h1.11c1.6.12,2.78.19,3.52.19,1.11-.12,2.1-.56,2.97-1.3,2.22-1.98,3.64-4.26,4.26-6.86.74-2.6,1.11-4.76,1.11-6.49v-59.69c0-1.6-.25-2.84-.74-3.71-.5-.99-1.11-1.67-1.85-2.04-.74-.37-1.48-.62-2.22-.74h-2.6l-.19.19v-1.3l29.66-15.2v31.14c.12-.37.49-1.23,1.11-2.6,1.6-3.46,3.64-6.86,6.12-10.2,3.95-5.31,8.28-9.52,12.98-12.61,6.05-3.83,12.61-5.81,19.65-5.93Z"/>
    <path class="cls-3" d="m588.8,191.16c-2.47,0-5.13-.25-7.97-.74-2.84-.62-5.07-2.6-6.67-5.93-7.54,2.97-15.7,5.01-24.47,6.12-2.22.25-4.26.37-6.12.37-1.24,0-3.34-.12-6.3-.37-2.47-.12-5.31-1.11-8.53-2.97-2.97-1.85-5.19-4.26-6.67-7.23-1.61-3.34-2.41-7.04-2.41-11.12,0-6.67,1.98-12.54,5.93-17.61,6.67-8.4,17.55-14.21,32.63-17.43v5.56c-1.85,1.36-3.65,2.91-5.38,4.63-3.96,4.08-6.55,9.08-7.79,15.02-.5,2.22-.74,4.57-.74,7.04,0,.99.12,2.84.37,5.56.25,2.35,1.23,5.07,2.97,8.16,1.73,3.09,4.39,5.31,7.97,6.67,6.18-1.23,12.05-2.9,17.61-5.01h.19l-.19-8.9c-.12-.86-.19-12.05-.19-33.55v-25.21c0-2.1-.19-4.39-.56-6.86-.37-2.35-1.18-4.7-2.41-7.04-1.24-2.22-2.97-3.83-5.19-4.82h-6.3c-3.71,1.11-6.98,3.65-9.83,7.6-2.6,3.59-1.42,11.06,3.52,22.43l-21.13-17.05c1.6-3.46,4.01-6.3,7.23-8.53,3.09-2.1,6.42-3.71,10.01-4.82,4.82-1.36,9.45-2.04,13.9-2.04,4.7,0,8.9.62,12.61,1.85,1.23.37,2.84,1.05,4.82,2.04,4.57,2.35,8.03,5.62,10.38,9.83,3.34,6.06,5.01,12.48,5.01,19.28v43.19l-.19,5.01c0,6.8,1.98,11.74,5.93,14.83.99.62,2.35.93,4.08.93.86,0,1.54-.06,2.04-.19h1.11v1.11h-12.98c-.12,0-.62.03-1.48.09-.87.06-1.82.09-2.87.09h-1.95Z"/>
    <path class="cls-3" d="m656.28,190.97h-13.72l-38.93-90.28c-.74-1.73-1.73-3.15-2.97-4.26-2.1-1.6-4.32-2.41-6.67-2.41h-1.3v-1.11h18.91c3.83,0,7.29,1.05,10.38,3.15,3.21,2.1,5.62,4.88,7.23,8.34l31.14,71.74,32.63-75.45c.37-.74.56-1.42.56-2.04,0-1.6-.96-2.78-2.87-3.52-1.92-.74-4.11-1.11-6.58-1.11h-1.85v-1.11h26.32v1.11h-1.67c-.74,0-1.98.19-3.71.56-1.36.37-2.78,1.05-4.26,2.04-1.48.87-2.66,2.22-3.52,4.08-1.98,4.57-4.94,11.46-8.9,20.67-3.96,9.21-6.55,15.23-7.79,18.07-2.35,5.31-5.32,12.11-8.9,20.39-3.59,8.28-5.81,13.41-6.67,15.39-2.1,4.82-4.39,10.07-6.86,15.76Z"/>
    <path class="cls-3" d="m747.3,170.77c6.05,7.42,13.04,11.56,20.95,12.42h1.48c3.95,0,7.72-.99,11.31-2.97,5.68-4.57,10.26-10.38,13.72-17.43.49-1.48.86-2.66,1.11-3.52h2.78c-2.35,6.3-5.69,11.93-10.01,16.87-4.33,4.82-9.27,8.53-14.83,11.12-5.56,2.47-11.37,3.71-17.43,3.71s-11.68-1.23-17.24-3.71c-5.44-2.6-10.32-6.3-14.65-11.12-4.33-4.82-7.63-10.26-9.92-16.31-2.29-6.05-3.43-12.48-3.43-19.28,0-.25.06-1.05.19-2.41l.19-3.15.19-1.67c1.48-10.87,5.75-20.33,12.79-28.36,4.2-4.7,9.08-8.34,14.65-10.94,5.56-2.6,11.31-3.89,17.24-3.89,4.32,0,8.4.62,12.23,1.85,2.1.5,4.01,1.24,5.75,2.22,5.31,2.6,10.07,6.18,14.27,10.75,6.92,8.04,11.12,17.49,12.61,28.36.25.62.37,1.36.37,2.22h-59.69l-.19-2.22h38.19c-.87-10.75-3.03-19.84-6.49-27.25-3.46-7.29-7.66-11.74-12.61-13.35-1.48-.25-3.15-.37-5.01-.37-2.84.99-5.56,2.66-8.16,5-4.2,3.71-7.42,8.65-9.64,14.83-3.46,9.39-4.33,19.62-2.6,30.68,1.73,11.06,5.68,20.36,11.86,27.9Z"/>
    <path class="cls-3" d="m858.15,188.75c.86.74,1.85,1.18,2.97,1.3,1.36,0,2.53-.06,3.52-.19h.56c.25,0,.43-.06.56-.19v1.3h-48.01v-1.3c.12.12.31.19.56.19h.56c.99.12,2.16.19,3.52.19.99-.12,1.98-.56,2.97-1.3,2.22-1.85,3.71-4.14,4.45-6.86.62-2.47.93-4.7.93-6.67V58.24c0-1.48-.25-2.66-.74-3.52-.62-.86-1.3-1.42-2.04-1.67-.74-.37-1.42-.62-2.04-.74-.99-.12-1.61-.12-1.85,0h-.74l-.19.19v-1.3l29.66-15.2v139.22c0,1.98.31,4.2.93,6.67.74,2.72,2.22,5.01,4.45,6.86Z"/>
    <path class="cls-4" d="m917.66,89.2c0,3.34,1.27,6.49,3.8,9.45,2.53,2.97,5.84,5.62,9.92,7.97,4.08,2.35,8.56,4.73,13.44,7.14,4.88,2.41,9.73,5,14.55,7.79s9.21,5.78,13.16,8.99c3.95,3.22,7.14,7.11,9.55,11.68,2.41,4.57,3.49,9.52,3.24,14.83-.12,3.34-.93,6.74-2.41,10.2-1.48,3.46-3.68,6.8-6.58,10.01-2.91,3.21-6.27,6.09-10.1,8.62-3.83,2.53-8.41,4.54-13.72,6.02-5.31,1.48-10.88,2.22-16.68,2.22-13.6,0-24.38-2.2-32.35-6.58-7.97-4.39-13.75-9.73-17.33-16.04-2.22-4.32-3.09-8.71-2.6-13.16.49-4.45,2.16-8.16,5.01-11.12,2.97-3.21,6.77-5.47,11.4-6.77s8.71-1.33,12.23-.09c3.52,1.24,5.28,3.65,5.28,7.23,0,4.7.93,9.3,2.78,13.81,1.85,4.51,4.63,8.34,8.34,11.49,3.71,3.15,7.85,4.73,12.42,4.73,3.83,0,6.92-1.17,9.27-3.52s3.52-5.31,3.52-8.9c0-2.97-.96-5.99-2.87-9.08-1.92-3.09-4.48-5.99-7.69-8.71-3.21-2.72-6.83-5.59-10.84-8.62-4.02-3.03-8.16-5.93-12.42-8.71s-8.41-5.84-12.42-9.18c-4.02-3.34-7.63-6.64-10.84-9.92-3.22-3.27-5.78-6.92-7.69-10.94-1.92-4.01-2.87-8.12-2.87-12.33,0-5.19,2.25-10.07,6.77-14.65,4.51-4.57,10.35-8.16,17.52-10.75,7.17-2.6,14.71-3.89,22.62-3.89,5.44,0,10.38.31,14.83.93,4.45.62,8.25,1.48,11.4,2.6,3.15,1.11,5.87,2.35,8.16,3.71,2.29,1.36,4.11,2.91,5.47,4.63,1.36,1.73,2.35,3.46,2.97,5.19.62,1.73.93,3.59.93,5.56,0,7.29-2.66,13.72-7.97,19.28-3.71,3.83-6.61,5-8.71,3.52-.99-.86-1.48-2.35-1.48-4.45,0-5.93-2.44-11.46-7.32-16.59-4.88-5.13-10.35-7.69-16.41-7.69-4.94,0-9.05,1.39-12.33,4.17-3.28,2.78-4.91,6.09-4.91,9.92Z"/>
    <path class="cls-4" d="m1040.75,97.36c16.68,0,28.98,6.98,36.89,20.95,6.55,11.74,8.53,25.03,5.93,39.86-2.47,14.09-8.34,24.28-17.61,30.59-5.19,3.58-11,5.38-17.43,5.38-1.85,0-3.65-.25-5.38-.74-1.73-.5-3.24-1.11-4.54-1.85-1.3-.74-2.5-1.6-3.62-2.6-1.11-.99-2.04-1.95-2.78-2.87-.74-.93-1.36-1.79-1.85-2.6-.5-.8-.87-1.45-1.11-1.95l-.37-.74v14.27c0,2.1.62,4.6,1.85,7.51,1.23,2.9,2.56,5.53,3.99,7.88,1.42,2.35,2.41,4.76,2.97,7.23.56,2.47.34,4.51-.65,6.12-.99,1.6-3.49,2.97-7.51,4.08-4.02,1.11-9.61,1.67-16.78,1.67-6.06,0-10.82-.56-14.27-1.67-3.46-1.11-5.65-2.53-6.58-4.26-.93-1.73-1.27-3.86-1.02-6.4.25-2.53.9-4.98,1.95-7.32,1.05-2.35,2.04-5.01,2.97-7.97.93-2.97,1.39-5.44,1.39-7.42v-53.02c0-2.6-.34-4.91-1.02-6.95-.68-2.04-1.55-3.64-2.6-4.82-1.05-1.17-2.2-2.25-3.43-3.24-1.24-.99-2.38-1.76-3.43-2.32-1.05-.56-1.92-1.2-2.6-1.95-.68-.74-1.02-1.48-1.02-2.22,0-2.6,3.68-6.49,11.03-11.68,7.35-5.19,12.73-7.79,16.13-7.79s6.18.83,8.34,2.5c2.16,1.67,3.74,3.37,4.73,5.1.25-.25.52-.62.83-1.11.31-.49,1.05-1.36,2.22-2.6,1.17-1.23,2.41-2.32,3.71-3.24,1.3-.93,2.9-1.79,4.82-2.6,1.91-.8,3.86-1.21,5.84-1.21Zm-3.52,66.92c2.97,0,5.53-.83,7.69-2.5,2.16-1.67,3.8-3.8,4.91-6.4s1.91-5.22,2.41-7.88c.49-2.66.68-5.28.56-7.88,0-2.1-.19-4.36-.56-6.77-.37-2.41-1.02-4.94-1.95-7.6-.93-2.66-2.35-4.85-4.26-6.58-1.92-1.73-4.17-2.6-6.77-2.6-2.1,0-3.96.93-5.56,2.78-1.61,1.85-2.84,4.45-3.71,7.79-.87,3.34-1.3,7.17-1.3,11.49v17.98c0,1.73.49,3.24,1.48,4.54.99,1.3,2.1,2.22,3.34,2.78,1.23.56,2.47.83,3.71.83Z"/>
    <path class="cls-4" d="m1195.17,156.49c0,2.22.65,4.85,1.95,7.88,1.3,3.03,2.66,5.72,4.08,8.06,1.42,2.35,2.44,4.76,3.06,7.23.62,2.47.46,4.54-.46,6.21-.93,1.67-3.37,3.03-7.32,4.08-3.96,1.05-9.52,1.58-16.68,1.58-2.35,0-4.42-.31-6.21-.93-1.79-.62-3.28-1.39-4.45-2.32-1.18-.93-2.13-2.22-2.87-3.89-.74-1.67-1.3-3.21-1.67-4.63-.37-1.42-.65-3.27-.83-5.56-.19-2.29-.28-4.14-.28-5.56s.03-3.43.09-6.02c.06-2.6.09-4.45.09-5.56v-9.27c0-5.68-.53-10.47-1.58-14.37-1.05-3.89-2.53-6.8-4.45-8.71-1.92-1.91-4.11-2.93-6.58-3.06-1.85-.12-4.05.56-6.58,2.04-2.53,1.48-5.01,3.34-7.42,5.56-2.41,2.22-4.48,4.57-6.21,7.04v16.68c0,3.09.65,6.43,1.95,10.01,1.3,3.59,2.62,6.61,3.99,9.08,1.36,2.47,2.35,4.98,2.97,7.51.62,2.53.4,4.54-.65,6.02-1.05,1.48-3.59,2.72-7.6,3.71-4.02.99-9.67,1.48-16.96,1.48s-12.48-.49-16.31-1.48c-3.83-.99-6.21-2.25-7.14-3.8-.93-1.54-1.11-3.58-.56-6.12.56-2.53,1.54-5.07,2.97-7.6,1.42-2.53,2.75-5.59,3.99-9.18,1.23-3.58,1.85-6.92,1.85-10.01v-55.8c0-2.22-.65-4.85-1.95-7.88-1.3-3.03-2.66-5.71-4.08-8.06-1.42-2.35-2.44-4.76-3.06-7.23-.62-2.47-.46-4.54.46-6.21s3.37-3.03,7.32-4.08c3.95-1.05,9.52-1.58,16.68-1.58,2.72,0,5.03.4,6.95,1.21,1.92.81,3.46,2.07,4.63,3.8,1.17,1.73,2.1,3.4,2.78,5.01.68,1.61,1.14,3.86,1.39,6.77.25,2.91.4,5.19.46,6.86.06,1.67.03,4.05-.09,7.14v24.66c15.08-13.22,26.76-19.84,35.04-19.84,4.45,0,8.46,1.05,12.05,3.15,3.58,2.1,6.67,5.16,9.27,9.18,2.6,4.02,4.57,9.05,5.93,15.11,1.36,6.06,2.04,12.92,2.04,20.58v11.12Z"/>
    <path class="cls-4" d="m1363.3,97.36c7.54,0,12.88,2.63,16.04,7.88,3.15,5.25,3.37,10.51.65,15.76-2.72,5.25-7.54,7.88-14.46,7.88-3.09,0-6.06-.96-8.9-2.87-2.84-1.91-5.41-3.8-7.69-5.65-2.29-1.85-4.36-2.78-6.21-2.78-6.3,0-17.67,11.8-34.11,35.41-.37.5-1.61,2.29-3.71,5.38-2.1,3.09-3.65,5.31-4.63,6.67-.99,1.36-2.69,3.55-5.1,6.58-2.41,3.03-4.51,5.35-6.3,6.95-1.79,1.61-4.17,3.55-7.14,5.84-2.97,2.29-5.81,4.05-8.53,5.28-2.72,1.24-5.84,2.29-9.36,3.15-3.52.86-7.2,1.3-11.03,1.3-12.85,0-23.64-4.73-32.35-14.18-8.71-9.45-13.07-21.47-13.07-36.06,0-7.91,1.82-15.42,5.47-22.52,3.64-7.11,8.87-12.88,15.66-17.33,6.8-4.45,14.33-6.67,22.62-6.67,11,0,20.21,2.22,27.62,6.67,7.42,4.45,11.12,10.13,11.12,17.05,0,4.94-1.85,9.12-5.56,12.51-3.71,3.4-7.88,5.81-12.51,7.23-4.63,1.42-9.73,2.97-15.29,4.63s-9.45,3.24-11.68,4.73-3.34,3.52-3.34,6.12c0,1.24.52,2.97,1.58,5.19,1.05,2.22,2.53,4.57,4.45,7.04,1.91,2.47,4.6,4.61,8.06,6.4,3.46,1.79,7.23,2.69,11.31,2.69s8.74-2.5,14.37-7.51c5.62-5.01,10.72-10.6,15.29-16.78,4.57-6.18,8.59-12.3,12.05-18.35-.12-2.1-.83-4.66-2.13-7.69-1.3-3.03-2.66-5.68-4.08-7.97-1.42-2.29-2.41-4.66-2.97-7.14-.56-2.47-.34-4.51.65-6.12.99-1.6,3.46-2.93,7.42-3.99,3.95-1.05,9.45-1.58,16.5-1.58,5.93,0,10.2,2.29,12.79,6.86,8.4-6.67,17.24-10.01,26.51-10.01Zm-124.2,48.2c1.73-2.1,3.95-4.05,6.67-5.84,2.72-1.79,5.25-3.3,7.6-4.54,2.35-1.23,4.57-2.62,6.67-4.17,2.1-1.54,3.77-3.46,5-5.75,1.23-2.29,1.85-5.03,1.85-8.25s-.74-6.27-2.22-8.81c-1.48-2.53-3.83-3.8-7.04-3.8-4.2,0-7.85,2.44-10.94,7.32-3.09,4.88-5.25,10.41-6.49,16.59-1.24,6.18-1.61,11.93-1.11,17.24Zm101.03-10.57v18.17c0,3.09.65,6.43,1.95,10.01,1.3,3.59,2.62,6.61,3.99,9.08,1.36,2.47,2.35,4.98,2.97,7.51.62,2.53.4,4.57-.65,6.12-1.05,1.55-3.59,2.78-7.6,3.71-4.02.93-9.67,1.39-16.96,1.39-4.33,0-8.04-.15-11.12-.46-3.09-.31-5.56-.71-7.42-1.21-1.85-.49-3.21-1.23-4.08-2.22-.87-.99-1.42-1.91-1.67-2.78-.25-.86-.16-2.1.28-3.71.43-1.6.93-2.99,1.48-4.17.56-1.17,1.33-2.78,2.32-4.82.99-2.04,1.79-3.8,2.41-5.28,1.11-1.6,2.6-3.77,4.45-6.49,1.23-1.73,2.1-2.97,2.6-3.71,6.8-9.76,12.36-17.18,16.68-22.25,4.2-4.7,7.66-7.97,10.38-9.82v10.94Z"/>
    <path class="cls-4" d="m1458.22,174.11c1.11-.74,2.1-1.23,2.97-1.48.86-.25,1.51-.28,1.95-.09.43.19.71.5.83.93.12.43.09.96-.09,1.58-.19.62-.53,1.3-1.02,2.04-7.29,11.37-18.54,17.05-33.74,17.05-12.85,0-23.64-4.73-32.35-14.18-8.71-9.45-13.07-21.47-13.07-36.06,0-7.91,1.82-15.42,5.47-22.52,3.64-7.11,8.87-12.88,15.66-17.33,6.8-4.45,14.33-6.67,22.62-6.67,7.17,0,13.69.99,19.56,2.97,5.87,1.98,10.53,4.79,14,8.43,3.46,3.65,5.19,7.76,5.19,12.33,0,4.94-1.85,9.12-5.56,12.51-3.71,3.4-7.88,5.81-12.51,7.23-4.63,1.42-9.73,2.97-15.29,4.63s-9.45,3.24-11.68,4.73-3.34,3.52-3.34,6.12c0,1.24.52,2.97,1.58,5.19,1.05,2.22,2.53,4.57,4.45,7.04,1.91,2.47,4.6,4.61,8.06,6.4,3.46,1.79,7.23,2.69,11.31,2.69,5.81,0,10.81-1.17,15.02-3.52Zm-42.82-28.55c2.1-2.47,4.94-4.82,8.53-7.04,3.58-2.22,6.7-4.01,9.36-5.38,2.66-1.36,4.97-3.43,6.95-6.21,1.98-2.78,2.97-6.09,2.97-9.92,0-3.34-.74-6.27-2.22-8.81-1.48-2.53-3.83-3.8-7.04-3.8-4.2,0-7.85,2.44-10.94,7.32-3.09,4.88-5.25,10.41-6.49,16.59-1.24,6.18-1.61,11.93-1.11,17.24Z"/>
  </g>
</svg>